<?xml version="1.0" encoding="UTF-8"?>
<svg xmlns="http://www.w3.org/2000/svg" xmlns:xlink="http://www.w3.org/1999/xlink" width="48pt" height="48pt" viewBox="0 0 48 48" version="1.1">
<g id="surface591771">
<path style=" stroke:none;fill-rule:nonzero;fill:rgb(41.568627%,9.803922%,49.019608%);fill-opacity:1;" d="M 10.9375 6 C 8.453125 6 6.4375 8.015625 6.4375 10.5 C 6.4375 12.984375 8.453125 15 10.9375 15 C 13.421875 15 15.4375 12.984375 15.4375 10.5 C 15.4375 8.015625 13.421875 6 10.9375 6 Z M 36.9375 6 C 34.453125 6 32.4375 8.015625 32.4375 10.5 C 32.4375 12.984375 34.453125 15 36.9375 15 C 39.421875 15 41.4375 12.984375 41.4375 10.5 C 41.4375 8.015625 39.421875 6 36.9375 6 Z M 36.9375 6 "/>
<path style=" stroke:none;fill-rule:nonzero;fill:rgb(41.568627%,9.803922%,49.019608%);fill-opacity:1;" d="M 36.9375 6 C 34.453125 6 32.4375 8.015625 32.4375 10.5 C 32.4375 12.984375 34.453125 15 36.9375 15 C 39.421875 15 41.4375 12.984375 41.4375 10.5 C 41.4375 8.015625 39.421875 6 36.9375 6 Z M 23.9375 6 C 21.453125 6 19.4375 8.015625 19.4375 10.5 C 19.4375 12.984375 21.453125 15 23.9375 15 C 26.421875 15 28.4375 12.984375 28.4375 10.5 C 28.4375 8.015625 26.421875 6 23.9375 6 Z M 36.9375 19 C 34.453125 19 32.4375 21.015625 32.4375 23.5 C 32.4375 25.984375 34.453125 28 36.9375 28 C 39.421875 28 41.4375 25.984375 41.4375 23.5 C 41.4375 21.015625 39.421875 19 36.9375 19 Z M 36.9375 19 "/>
<path style=" stroke:none;fill-rule:nonzero;fill:rgb(41.568627%,9.803922%,49.019608%);fill-opacity:1;" d="M 36.9375 19 C 34.453125 19 32.4375 21.015625 32.4375 23.5 C 32.4375 25.984375 34.453125 28 36.9375 28 C 39.421875 28 41.4375 25.984375 41.4375 23.5 C 41.4375 21.015625 39.421875 19 36.9375 19 Z M 36.9375 32 C 34.453125 32 32.4375 34.015625 32.4375 36.5 C 32.4375 38.984375 34.453125 41 36.9375 41 C 39.421875 41 41.4375 38.984375 41.4375 36.5 C 41.4375 34.015625 39.421875 32 36.9375 32 Z M 23.9375 19 C 21.453125 19 19.4375 21.015625 19.4375 23.5 C 19.4375 25.984375 21.453125 28 23.9375 28 C 26.421875 28 28.4375 25.984375 28.4375 23.5 C 28.4375 21.015625 26.421875 19 23.9375 19 Z M 23.9375 19 "/>
</g>
</svg>
